<?xml version="1.0" encoding="utf-8"?>
<!-- Generator: Adobe Illustrator 27.5.0, SVG Export Plug-In . SVG Version: 6.00 Build 0)  -->
<svg version="1.1" id="Layer_1" xmlns="http://www.w3.org/2000/svg" xmlns:xlink="http://www.w3.org/1999/xlink" x="0px" y="0px"
	 viewBox="0 0 3000 2000" style="enable-background:new 0 0 3000 2000;" xml:space="preserve">
<rect y="0" style="fill:#E3E3E3;" width="3000" height="2000"/>
<g>
	<g>
		<path d="M774.03,495.728c7.899,5.996,8.989,13.639,6.989,22.849c-1.977,9.133-9.697,14.331-16.882,19.298
			c-6.137,4.243-8.824,8.683-9.719,16.102c-1.048,8.672-2.049,17.921-9.209,23.926c-7.22,6.063-14.489,8.657-23.474,4.461
			c-7.07-3.299-12.104-10.409-12.329-18.276c-0.253-8.844-7.722-16.414-11.015-24.216c-3.989-9.455-3.129-20.519,2.163-29.287
			l0.093-0.154c5.293-8.768,14.684-14.687,24.907-15.559c8.438-0.721,18.617,2.357,26.559-1.536
			C759.179,489.871,767.815,491.013,774.03,495.728z"/>
		<g>
			
				<ellipse transform="matrix(0.7183 -0.6958 0.6958 0.7183 -140.3324 615.6853)" cx="690.08" cy="481.125" rx="15.609" ry="21.232"/>
			
				<ellipse transform="matrix(0.281 -0.9597 0.9597 0.281 -12.6269 1012.9177)" cx="669.701" cy="514.886" rx="15.609" ry="21.232"/>
		</g>
		<g>
			<path d="M687.971,543.953c9.091,5.488,12.932,15.782,8.58,22.992c-4.353,7.211-15.251,8.608-24.342,3.12
				s-12.932-15.782-8.58-22.992C667.981,539.863,678.88,538.466,687.971,543.953z"/>
			
				<ellipse transform="matrix(0.5168 -0.8561 0.8561 0.5168 -49.1532 854.3006)" cx="732.193" cy="470.692" rx="15.25" ry="19.227"/>
		</g>
	</g>
	<g>
		<path d="M926.461,746.708c7.321,6.591,7.809,14.295,5.133,23.323c-2.648,8.952-10.652,13.535-18.111,17.929
			c-6.371,3.754-9.358,7.971-10.81,15.298c-1.698,8.565-3.393,17.708-10.907,23.139c-7.578,5.485-14.937,7.506-23.467,2.625
			c-6.712-3.838-11.125-11.317-10.744-19.178c0.429-8.837-6.348-16.963-8.993-24.998c-3.205-9.736-1.509-20.7,4.378-29.031
			l0.103-0.146c5.886-8.331,15.592-13.503,25.729-13.578c8.368-0.064,18.159,3.795,26.281,0.53
			C912.28,739.715,920.7,741.524,926.461,746.708z"/>
		<g>
			
				<ellipse transform="matrix(0.7824 -0.6227 0.6227 0.7824 -268.0569 683.9835)" cx="844.88" cy="725.632" rx="15.496" ry="21.131"/>
			<ellipse transform="matrix(0.3674 -0.93 0.93 0.3674 -184.6069 1243.9906)" cx="822.215" cy="757.709" rx="15.584" ry="21.012"/>
		</g>
		<g>
			
				<ellipse transform="matrix(0.6021 -0.7985 0.7985 0.6021 -309.1893 980.653)" cx="829.218" cy="800.512" rx="15.186" ry="19.078"/>
			<path d="M895.931,706.095c8.535,6.177,11.529,16.738,6.689,23.589c-4.841,6.851-15.684,7.398-24.219,1.221
				c-8.535-6.177-11.529-16.738-6.689-23.589C876.554,700.464,887.397,699.918,895.931,706.095z"/>
		</g>
	</g>
	<g>
		<path d="M1227.669,643.526c3.905,9.115,1.077,16.299-5.211,23.319c-6.231,6.964-15.51,7.669-24.212,8.439
			c-7.432,0.657-11.961,3.19-16.405,9.198c-5.196,7.022-10.635,14.57-19.827,16.253c-9.273,1.705-16.874,0.369-22.613-7.718
			c-4.517-6.362-5.381-15.03-1.691-21.981c4.149-7.815,1.395-18.085,2.386-26.496c1.202-10.191,7.416-19.386,16.349-24.395
			l0.157-0.088c8.933-5.009,20.023-5.515,29.342-1.223c7.693,3.542,15.022,11.247,23.85,11.785
			C1217.65,631.096,1224.595,636.355,1227.669,643.526z"/>
		<g>
			
				<ellipse transform="matrix(0.9682 -0.2501 0.2501 0.9682 -110.4713 309.3124)" cx="1161.892" cy="589.355" rx="15.609" ry="21.232"/>
			
				<ellipse transform="matrix(0.7184 -0.6956 0.6956 0.7184 -105.9052 955.6472)" cx="1127.495" cy="608.641" rx="15.609" ry="21.232"/>
		</g>
		<g>
			
				<ellipse transform="matrix(0.8722 -0.4891 0.4891 0.8722 -175.551 628.7482)" cx="1115.718" cy="650.398" rx="15.25" ry="19.227"/>
			<path d="M1216.964,593.631c5.193,9.262,3.448,20.11-3.899,24.229c-7.347,4.119-17.512-0.05-22.705-9.313
				c-5.193-9.262-3.448-20.11,3.899-24.229C1201.605,580.199,1211.77,584.368,1216.964,593.631z"/>
		</g>
	</g>
	<g>
		<path d="M297.119,205.706c3.906,9.115,1.077,16.299-5.211,23.319c-6.231,6.964-15.51,7.669-24.212,8.439
			c-7.432,0.657-11.961,3.19-16.405,9.198c-5.195,7.023-10.635,14.57-19.826,16.253c-9.273,1.705-16.874,0.369-22.613-7.718
			c-4.517-6.361-5.382-15.03-1.691-21.981c4.149-7.815,1.395-18.085,2.387-26.496c1.202-10.191,7.416-19.386,16.349-24.395
			l0.157-0.088c8.933-5.009,20.023-5.516,29.342-1.224c7.693,3.542,15.022,11.247,23.85,11.785
			C287.1,193.277,294.045,198.536,297.119,205.706z"/>
		<g>
			
				<ellipse transform="matrix(0.9682 -0.2501 0.2501 0.9682 -30.5469 62.6743)" cx="231.343" cy="151.536" rx="15.609" ry="21.232"/>
			<path d="M185.732,181.679c8.156,8.424,19.789,10.393,25.982,4.396c6.193-5.996,4.602-17.686-3.555-26.111
				c-8.156-8.424-19.789-10.393-25.982-4.396C175.984,161.565,177.576,173.255,185.732,181.679z"/>
		</g>
		<g>
			
				<ellipse transform="matrix(0.8723 -0.4891 0.4891 0.8723 -80.3085 117.7155)" cx="185.168" cy="212.579" rx="15.25" ry="19.227"/>
			<ellipse transform="matrix(0.8722 -0.4891 0.4891 0.8722 -44.9587 154.4263)" cx="273.112" cy="163.27" rx="15.25" ry="19.227"/>
		</g>
	</g>
	<g>
		<path d="M329.702,482.182c3.905,9.115,1.077,16.298-5.211,23.319c-6.231,6.964-15.51,7.669-24.212,8.439
			c-7.432,0.657-11.961,3.19-16.405,9.198c-5.195,7.022-10.635,14.57-19.827,16.253c-9.273,1.705-16.874,0.369-22.613-7.718
			c-4.517-6.361-5.381-15.03-1.691-21.981c4.149-7.815,1.395-18.085,2.387-26.496c1.202-10.191,7.416-19.386,16.349-24.395
			l0.157-0.088c8.933-5.009,20.023-5.515,29.342-1.223c7.693,3.542,15.022,11.247,23.85,11.785
			C319.683,469.752,326.628,475.011,329.702,482.182z"/>
		<g>
			<ellipse transform="matrix(0.9682 -0.2501 0.2501 0.9682 -98.657 79.609)" cx="263.926" cy="428.011" rx="15.609" ry="21.232"/>
			
				<ellipse transform="matrix(0.7184 -0.6956 0.6956 0.7184 -246.5096 285.6005)" cx="229.529" cy="447.297" rx="15.609" ry="21.232"/>
		</g>
		<g>
			
				<ellipse transform="matrix(0.8722 -0.4891 0.4891 0.8722 -211.3631 168.9754)" cx="217.751" cy="489.054" rx="15.25" ry="19.227"/>
			
				<ellipse transform="matrix(0.8723 -0.4891 0.4891 0.8723 -176.0087 205.6795)" cx="305.695" cy="439.745" rx="15.25" ry="19.227"/>
		</g>
	</g>
	<g>
		<path d="M519.868,674.695c7.296,6.716,7.658,14.428,4.796,23.408c-2.833,8.905-11.009,13.349-18.632,17.614
			c-6.511,3.643-9.606,7.809-11.199,15.109c-1.864,8.534-3.735,17.647-11.431,22.947c-7.762,5.353-15.243,7.247-23.791,2.22
			c-6.726-3.953-11.065-11.508-10.545-19.361c0.584-8.828-6.134-17.07-8.674-25.149c-3.077-9.79-1.173-20.723,4.925-28.951
			l0.107-0.145c6.099-8.228,16.008-13.232,26.267-13.132c8.468,0.081,18.31,4.108,26.585,0.984
			C505.637,667.459,514.127,669.413,519.868,674.695z"/>
		<g>
			
				<ellipse transform="matrix(0.7809 -0.6247 0.6247 0.7809 -311.5208 416.3179)" cx="437.676" cy="652.213" rx="15.609" ry="21.232"/>
			
				<ellipse transform="matrix(0.3706 -0.9288 0.9288 0.3706 -374.4966 815.1807)" cx="414.194" cy="683.895" rx="15.609" ry="21.232"/>
		</g>
		<g>
			
				<ellipse transform="matrix(0.5955 -0.8034 0.8034 0.5955 -413.7802 631.8821)" cx="420.55" cy="726.813" rx="15.25" ry="19.227"/>
			
				<ellipse transform="matrix(0.5955 -0.8034 0.8034 0.5955 -324.4193 647.3456)" cx="480.587" cy="645.812" rx="15.25" ry="19.227"/>
		</g>
	</g>
	<g>
		<path d="M1440.123,833.45c2.606,9.568-1.188,16.291-8.388,22.373c-7.135,6.035-16.422,5.449-25.147,5.007
			c-7.451-0.378-12.288,1.504-17.52,6.839c-6.117,6.236-12.548,12.958-21.885,13.353c-9.42,0.405-16.762-1.97-21.328-10.773
			c-3.594-6.925-3.25-15.63,1.367-22.003c5.19-7.165,3.884-17.718,6.03-25.911c2.601-9.927,10.027-18.174,19.568-21.898l0.168-0.065
			c9.541-3.724,20.593-2.692,29.229,2.849c7.129,4.572,13.321,13.217,21.99,14.972
			C1431.92,819.753,1438.071,825.923,1440.123,833.45z"/>
		<g>
			
				<ellipse transform="matrix(0.9935 -0.1137 0.1137 0.9935 -78.6661 162.1922)" cx="1382.476" cy="770.698" rx="15.609" ry="21.232"/>
			
				<ellipse transform="matrix(0.8078 -0.5895 0.5895 0.8078 -204.09 944.1898)" cx="1345.74" cy="785.039" rx="15.609" ry="21.232"/>
		</g>
		<g>
			<path d="M1342.504,819.218c3.862,9.892,0.632,20.394-7.214,23.457c-7.846,3.063-17.337-2.473-21.198-12.365
				c-3.862-9.892-0.632-20.394,7.214-23.457C1329.152,803.791,1338.643,809.326,1342.504,819.218z"/>
			<path d="M1436.425,782.554c3.862,9.892,0.632,20.394-7.214,23.457c-7.846,3.063-17.337-2.473-21.198-12.365
				c-3.862-9.892-0.632-20.394,7.214-23.457C1423.073,767.126,1432.564,772.662,1436.425,782.554z"/>
		</g>
	</g>
	<g>
		<path d="M1483.728,1142.918c0.393,9.909-4.813,15.609-13.194,19.921c-8.307,4.28-17.227,1.625-25.629-0.763
			c-7.177-2.04-12.312-1.291-18.608,2.734c-7.36,4.704-15.136,9.812-24.323,8.102c-9.271-1.719-15.893-5.681-18.367-15.284
			c-1.948-7.555,0.34-15.961,6.269-21.136c6.666-5.818,7.761-16.395,11.69-23.897c4.762-9.09,13.849-15.46,23.982-16.949
			l0.178-0.026c10.133-1.489,20.672,1.998,27.844,9.334c5.921,6.055,10.016,15.869,18.07,19.525
			C1478.808,1127.73,1483.417,1135.122,1483.728,1142.918z"/>
		<g>
			
				<ellipse transform="matrix(0.1121 -0.9937 0.9937 0.1121 217.9126 2381.5439)" cx="1441.631" cy="1068.832" rx="21.232" ry="15.609"/>
			
				<ellipse transform="matrix(0.9194 -0.3932 0.3932 0.9194 -309.5458 638.0755)" cx="1402.615" cy="1074.564" rx="15.609" ry="21.232"/>
		</g>
		<g>
			
				<ellipse transform="matrix(0.9894 -0.1454 0.1454 0.9894 -146.6346 211.9001)" cx="1376.703" cy="1109.363" rx="15.25" ry="19.227"/>
			
				<ellipse transform="matrix(0.9894 -0.1454 0.1454 0.9894 -143.4423 226.24)" cx="1476.457" cy="1094.706" rx="15.25" ry="19.227"/>
		</g>
	</g>
	<g>
		<path d="M1846.053,1163.949c2.607,9.568-1.188,16.291-8.388,22.373c-7.135,6.035-16.422,5.449-25.147,5.007
			c-7.451-0.378-12.287,1.504-17.52,6.839c-6.117,6.236-12.549,12.958-21.885,13.353c-9.42,0.405-16.763-1.97-21.328-10.773
			c-3.594-6.925-3.25-15.63,1.367-22.004c5.19-7.165,3.884-17.718,6.03-25.911c2.601-9.927,10.028-18.173,19.568-21.898l0.168-0.065
			c9.54-3.724,20.593-2.692,29.228,2.849c7.129,4.572,13.321,13.217,21.99,14.972
			C1837.851,1150.253,1844.001,1156.422,1846.053,1163.949z"/>
		<g>
			
				<ellipse transform="matrix(0.9935 -0.1137 0.1137 0.9935 -113.6089 210.4835)" cx="1788.406" cy="1101.198" rx="15.609" ry="21.232"/>
			<path d="M1739.062,1124.74c6.912,9.472,18.161,13.031,25.124,7.95c6.963-5.082,7.005-16.88,0.093-26.352
				c-6.912-9.472-18.161-13.031-25.124-7.95C1732.192,1103.469,1732.15,1115.267,1739.062,1124.74z"/>
		</g>
		<g>
			<path d="M1748.434,1149.718c3.862,9.892,0.632,20.394-7.214,23.457c-7.846,3.063-17.337-2.473-21.198-12.365
				c-3.862-9.892-0.632-20.394,7.214-23.457C1735.082,1134.29,1744.573,1139.826,1748.434,1149.718z"/>
			<path d="M1842.355,1113.053c3.862,9.892,0.632,20.394-7.214,23.457c-7.846,3.063-17.337-2.473-21.198-12.365
				c-3.862-9.892-0.632-20.394,7.214-23.457C1829.003,1097.625,1838.494,1103.161,1842.355,1113.053z"/>
		</g>
	</g>
	<g>
		<path d="M1685.104,1435.213c2.606,9.568-1.188,16.291-8.388,22.373c-7.135,6.035-16.422,5.449-25.147,5.007
			c-7.451-0.378-12.287,1.504-17.52,6.839c-6.117,6.236-12.548,12.958-21.885,13.353c-9.42,0.405-16.762-1.97-21.328-10.773
			c-3.594-6.925-3.25-15.63,1.367-22.004c5.19-7.165,3.884-17.718,6.03-25.911c2.601-9.927,10.027-18.173,19.568-21.898l0.168-0.066
			c9.54-3.724,20.593-2.692,29.229,2.849c7.129,4.572,13.321,13.217,21.99,14.972
			C1676.901,1421.516,1683.052,1427.686,1685.104,1435.213z"/>
		<g>
			
				<ellipse transform="matrix(0.9935 -0.1137 0.1137 0.9935 -145.4954 193.9426)" cx="1627.456" cy="1372.461" rx="15.609" ry="21.232"/>
			<path d="M1578.113,1396.003c6.912,9.472,18.161,13.031,25.124,7.95c6.963-5.082,7.005-16.88,0.093-26.352
				c-6.912-9.472-18.161-13.031-25.124-7.95C1571.242,1374.733,1571.201,1386.531,1578.113,1396.003z"/>
		</g>
		<g>
			<path d="M1587.485,1420.981c3.862,9.892,0.632,20.394-7.214,23.457c-7.846,3.063-17.337-2.473-21.198-12.365
				c-3.862-9.892-0.632-20.394,7.214-23.457C1574.133,1405.553,1583.623,1411.089,1587.485,1420.981z"/>
			<path d="M1681.406,1384.317c3.862,9.892,0.632,20.394-7.214,23.457c-7.846,3.063-17.337-2.473-21.198-12.365
				c-3.862-9.892-0.632-20.394,7.214-23.457C1668.054,1368.889,1677.544,1374.425,1681.406,1384.317z"/>
		</g>
	</g>
	<g>
		<path d="M2197.29,1598.604c8.425,5.23,10.226,12.737,9.098,22.094c-1.114,9.278-8.313,15.176-15.001,20.794
			c-5.713,4.799-7.972,9.471-8.169,16.941c-0.231,8.732-0.362,18.034-6.928,24.683c-6.621,6.713-13.615,9.975-22.953,6.639
			c-7.348-2.623-13.025-9.23-13.986-17.041c-1.081-8.781-9.224-15.619-13.233-23.078c-4.857-9.04-5.037-20.136-0.588-29.361
			l0.078-0.162c4.448-9.225,13.244-15.997,23.34-17.823c8.333-1.508,18.756,0.604,26.298-4.016
			C2181.955,1594.162,2190.66,1594.49,2197.29,1598.604z"/>
		<g>
			<path d="M2122.486,1580.063c8.911,7.621,11.593,19.111,5.99,25.662c-5.603,6.551-17.369,5.683-26.281-1.938
				s-11.593-19.111-5.99-25.662S2113.574,1572.441,2122.486,1580.063z"/>
			
				<ellipse transform="matrix(0.1899 -0.9818 0.9818 0.1899 99.4842 3375.4624)" cx="2095.212" cy="1627.446" rx="15.609" ry="21.232"/>
		</g>
		<g>
			<path d="M2116.124,1654.675c9.565,4.612,14.353,14.501,10.695,22.088s-14.378,9.998-23.943,5.385
				c-9.565-4.612-14.354-14.501-10.695-22.088C2095.839,1652.474,2106.559,1650.063,2116.124,1654.675z"/>
			<path d="M2159.916,1563.858c9.565,4.612,14.354,14.501,10.695,22.088c-3.658,7.587-14.378,9.998-23.943,5.385
				c-9.565-4.612-14.353-14.501-10.695-22.088S2150.351,1559.246,2159.916,1563.858z"/>
		</g>
	</g>
	<g>
		<path d="M2165.873,1323.599c8.426,5.23,10.226,12.737,9.098,22.094c-1.113,9.278-8.312,15.176-15.001,20.794
			c-5.713,4.799-7.972,9.471-8.169,16.941c-0.231,8.732-0.362,18.034-6.928,24.683c-6.621,6.713-13.615,9.975-22.953,6.639
			c-7.348-2.623-13.025-9.23-13.986-17.041c-1.081-8.781-9.224-15.618-13.233-23.078c-4.857-9.04-5.037-20.136-0.588-29.361
			l0.078-0.162c4.448-9.225,13.244-15.997,23.34-17.823c8.333-1.508,18.756,0.604,26.298-4.016
			C2150.539,1319.158,2159.244,1319.486,2165.873,1323.599z"/>
		<g>
			<ellipse transform="matrix(0.65 -0.76 0.76 0.65 -272.417 2042.3909)" cx="2080.924" cy="1316.92" rx="15.609" ry="21.232"/>
			
				<ellipse transform="matrix(0.1899 -0.9818 0.9818 0.1899 344.0116 3121.8169)" cx="2063.796" cy="1352.441" rx="15.609" ry="21.232"/>
		</g>
		<g>
			<path d="M2084.707,1379.67c9.565,4.612,14.353,14.501,10.695,22.088c-3.658,7.586-14.378,9.998-23.943,5.385
				c-9.565-4.612-14.353-14.501-10.695-22.088S2075.142,1375.058,2084.707,1379.67z"/>
			<path d="M2128.499,1288.853c9.565,4.612,14.353,14.501,10.695,22.088c-3.658,7.587-14.378,9.998-23.943,5.385
				c-9.565-4.612-14.354-14.501-10.695-22.088C2108.215,1286.652,2118.934,1284.241,2128.499,1288.853z"/>
		</g>
	</g>
	<g>
		<path d="M2594.193,1439.705c8.425,5.23,10.226,12.737,9.098,22.094c-1.114,9.278-8.313,15.176-15.001,20.794
			c-5.713,4.799-7.972,9.471-8.169,16.941c-0.231,8.732-0.362,18.034-6.928,24.683c-6.621,6.713-13.615,9.975-22.953,6.639
			c-7.348-2.623-13.026-9.23-13.986-17.041c-1.081-8.781-9.225-15.618-13.234-23.078c-4.857-9.04-5.037-20.136-0.588-29.361
			l0.078-0.162c4.448-9.225,13.244-15.997,23.341-17.823c8.333-1.508,18.756,0.604,26.298-4.016
			C2578.858,1435.264,2587.564,1435.592,2594.193,1439.705z"/>
		<g>
			<ellipse transform="matrix(0.65 -0.76 0.76 0.65 -210.7299 2408.531)" cx="2509.244" cy="1433.026" rx="15.609" ry="21.232"/>
			
				<ellipse transform="matrix(0.1899 -0.9818 0.9818 0.1899 577.019 3636.4204)" cx="2492.116" cy="1468.547" rx="15.609" ry="21.232"/>
		</g>
		<g>
			<path d="M2513.027,1495.776c9.565,4.612,14.353,14.501,10.695,22.088s-14.378,9.998-23.943,5.385
				c-9.565-4.612-14.354-14.501-10.695-22.088C2492.742,1493.575,2503.462,1491.164,2513.027,1495.776z"/>
			<path d="M2556.819,1404.959c9.565,4.612,14.354,14.501,10.695,22.088c-3.658,7.587-14.378,9.998-23.943,5.385
				c-9.565-4.612-14.353-14.501-10.695-22.088S2547.254,1400.347,2556.819,1404.959z"/>
		</g>
	</g>
	<g>
		<path d="M2828.785,1806.972c4.482,8.846,2.121,16.196-3.705,23.605c-5.772,7.349-14.987,8.648-23.621,9.974
			c-7.374,1.132-11.732,3.951-15.781,10.231c-4.734,7.341-9.678,15.222-18.743,17.491c-9.145,2.296-16.815,1.45-23.062-6.252
			c-4.916-6.059-6.334-14.654-3.097-21.827c3.639-8.065,0.232-18.138,0.682-26.594c0.546-10.247,6.158-19.822,14.751-25.393
			l0.151-0.098c8.594-5.571,19.628-6.788,29.203-3.103c7.904,3.041,15.712,10.26,24.557,10.231
			C2817.99,1795.21,2825.258,1800.013,2828.785,1806.972z"/>
		<g>
			
				<ellipse transform="matrix(0.9502 -0.3117 0.3117 0.9502 -410.1964 947.6647)" cx="2759.67" cy="1757.131" rx="15.609" ry="21.232"/>
			<path d="M2716.086,1790.138c8.68,7.884,20.415,9.102,26.211,2.721c5.796-6.381,3.458-17.945-5.222-25.829
				s-20.415-9.102-26.211-2.721S2707.406,1782.254,2716.086,1790.138z"/>
		</g>
		<g>
			<path d="M2730.302,1812.714c5.777,8.91,4.73,19.848-2.337,24.429c-7.067,4.582-17.479,1.073-23.256-7.837
				s-4.73-19.848,2.337-24.429C2714.113,1800.295,2724.525,1803.804,2730.302,1812.714z"/>
			
				<ellipse transform="matrix(0.8391 -0.544 0.544 0.8391 -509.8925 1808.5193)" cx="2802.106" cy="1766.162" rx="15.25" ry="19.227"/>
		</g>
	</g>
</g>
</svg>
